<?xml version="1.0" standalone="no"?>
<!DOCTYPE svg PUBLIC "-//W3C//DTD SVG 20010904//EN"
 "http://www.w3.org/TR/2001/REC-SVG-20010904/DTD/svg10.dtd">
<svg version="1.0" xmlns="http://www.w3.org/2000/svg"
 width="452.000000pt" height="452.000000pt" viewBox="0 0 452.000000 452.000000"
 preserveAspectRatio="xMidYMid meet">
<metadata>
Created by potrace 1.14, written by Peter Selinger 2001-2017
</metadata>
<g transform="translate(0.000000,452.000000) scale(0.100000,-0.100000)"
fill="#000000" stroke="none">
<path d="M1904 4294 c-75 -45 -108 -76 -149 -140 -41 -62 -54 -107 -60 -215
-4 -70 -14 -169 -20 -189 -1 -3 -5 -17 -9 -32 -7 -25 -13 -28 -50 -29 -22 -1
-52 -2 -66 -4 -14 -1 -59 -5 -101 -9 -42 -4 -87 -9 -100 -11 -13 -3 -41 -7
-64 -10 -206 -29 -414 -133 -551 -277 -166 -174 -283 -434 -330 -728 -3 -19
-7 -46 -9 -60 -20 -118 -26 -410 -12 -600 18 -246 112 -521 252 -735 84 -130
230 -287 365 -396 279 -225 672 -394 893 -385 71 3 89 8 166 48 55 29 96 43
115 42 15 -2 83 -22 150 -45 113 -40 128 -43 231 -43 229 -2 406 40 630 149
467 228 795 656 910 1190 36 167 45 262 46 455 1 218 -28 409 -90 598 -53 161
-157 361 -243 467 -270 332 -630 545 -1033 611 -90 14 -278 4 -380 -20 -68
-16 -164 -55 -254 -103 -117 -61 -119 -61 -186 -1 -50 43 -75 100 -69 156 9
97 68 150 181 166 68 9 95 34 98 91 2 28 -22 72 -44 85 -11 5 -51 10 -88 10
-61 0 -76 -4 -129 -36z"/>
</g>
</svg>
