<?xml version="1.0" standalone="no"?>
<!DOCTYPE svg PUBLIC "-//W3C//DTD SVG 20010904//EN"
 "http://www.w3.org/TR/2001/REC-SVG-20010904/DTD/svg10.dtd">
<svg version="1.0" xmlns="http://www.w3.org/2000/svg"
 width="512.000000pt" height="512.000000pt" viewBox="0 0 512.000000 512.000000"
 preserveAspectRatio="xMidYMid meet">
<metadata>
Created by potrace 1.14, written by Peter Selinger 2001-2017
</metadata>
<g transform="translate(0.000000,512.000000) scale(0.100000,-0.100000)"
fill="#000000" stroke="none">
<path d="M385 4694 c-5 -1 -22 -5 -37 -8 -38 -9 -87 -54 -153 -141 -73 -97
-129 -213 -162 -332 -44 -159 -36 -372 19 -543 83 -257 294 -490 535 -590 74
-31 225 -69 273 -70 21 0 56 -35 175 -172 83 -95 151 -175 153 -179 2 -4 -21
-41 -51 -81 -95 -130 -172 -283 -211 -419 l-16 -56 -307 -77 c-331 -83 -361
-96 -389 -162 -46 -110 27 -224 142 -224 27 0 155 27 284 60 150 38 237 55
241 49 3 -6 9 -41 12 -77 6 -55 24 -137 54 -243 4 -13 -52 -30 -323 -99 -198
-51 -338 -92 -357 -104 -88 -61 -88 -201 1 -262 62 -43 76 -41 472 60 l371 94
40 -54 c61 -83 208 -224 311 -298 115 -82 338 -194 478 -241 177 -58 305 -82
513 -95 493 -30 974 125 1322 427 78 68 169 166 213 229 l21 31 379 -96 378
-95 47 18 c71 27 102 73 102 152 0 69 -19 105 -71 136 -16 10 -173 54 -349 99
-176 44 -321 82 -323 84 -1 1 7 31 18 66 11 35 28 112 37 171 14 86 21 107 33
103 120 -35 476 -117 509 -116 111 1 182 118 137 224 -28 68 -50 78 -384 162
l-310 78 -22 76 c-42 140 -133 313 -226 428 -19 23 -34 44 -34 47 0 3 68 83
151 178 l151 173 81 13 c302 47 558 237 702 522 108 213 132 484 63 710 -51
166 -191 379 -282 427 -43 22 -118 20 -158 -5 -18 -12 -134 -122 -258 -246
l-225 -226 -235 234 c-129 128 -246 239 -259 246 -33 17 -112 15 -148 -3 -61
-32 -172 -180 -233 -310 -59 -127 -83 -239 -83 -383 1 -174 28 -291 104 -447
98 -201 274 -370 475 -456 l66 -28 -77 -87 c-43 -48 -80 -86 -84 -84 -3 2 -46
30 -96 62 -429 282 -1024 366 -1555 219 -174 -48 -379 -141 -525 -239 l-70
-47 -68 74 c-98 106 -97 103 -29 128 134 52 305 187 396 315 74 104 141 250
167 366 6 25 14 88 19 140 21 243 -50 473 -205 667 -81 101 -114 123 -187 123
-73 0 -84 -9 -348 -274 l-214 -215 -242 239 c-133 132 -245 240 -250 240 -5 0
-25 4 -44 9 -19 4 -39 7 -45 5z"/>
</g>
</svg>
